<mxfile host="app.diagrams.net" modified="2022-03-29T17:03:36.299Z" agent="5.0 (Windows NT 10.0; Win64; x64) AppleWebKit/537.36 (KHTML, like Gecko) Chrome/99.0.4844.84 Safari/537.36" etag="qavqmgadDrAk2aHfyGbA" version="17.2.4" type="github">
  <diagram id="dT5ClSpb7_-b5Ubr0wKS" name="第 1 页">
    <mxGraphModel dx="1422" dy="822" grid="1" gridSize="10" guides="1" tooltips="1" connect="1" arrows="1" fold="1" page="1" pageScale="1" pageWidth="827" pageHeight="1169" math="0" shadow="0">
      <root>
        <mxCell id="0" />
        <mxCell id="1" parent="0" />
        <mxCell id="AYEbhrb1yisgEEsM8yD8-1" value="" style="rounded=0;whiteSpace=wrap;html=1;" vertex="1" parent="1">
          <mxGeometry x="170" y="130" width="230" height="380" as="geometry" />
        </mxCell>
        <mxCell id="AYEbhrb1yisgEEsM8yD8-2" value="activity1" style="text;html=1;strokeColor=none;fillColor=none;align=center;verticalAlign=middle;whiteSpace=wrap;rounded=0;" vertex="1" parent="1">
          <mxGeometry x="255" y="100" width="60" height="30" as="geometry" />
        </mxCell>
        <mxCell id="AYEbhrb1yisgEEsM8yD8-4" value="" style="endArrow=none;html=1;rounded=0;" edge="1" parent="1">
          <mxGeometry width="50" height="50" relative="1" as="geometry">
            <mxPoint x="180" y="223" as="sourcePoint" />
            <mxPoint x="310" y="223" as="targetPoint" />
          </mxGeometry>
        </mxCell>
        <mxCell id="AYEbhrb1yisgEEsM8yD8-5" value="连接" style="rounded=1;whiteSpace=wrap;html=1;" vertex="1" parent="1">
          <mxGeometry x="330" y="200" width="60" height="27" as="geometry" />
        </mxCell>
        <mxCell id="AYEbhrb1yisgEEsM8yD8-6" value="请输入仪器的ip与端口" style="text;html=1;strokeColor=none;fillColor=none;align=center;verticalAlign=middle;whiteSpace=wrap;rounded=0;" vertex="1" parent="1">
          <mxGeometry x="180" y="200" width="130" height="30" as="geometry" />
        </mxCell>
      </root>
    </mxGraphModel>
  </diagram>
</mxfile>
